<?xml version="1.0" standalone="no"?><!DOCTYPE svg PUBLIC "-//W3C//DTD SVG 1.1//EN" "http://www.w3.org/Graphics/SVG/1.1/DTD/svg11.dtd"><svg t="1654332774225" class="icon" viewBox="0 0 1024 1024" version="1.1" xmlns="http://www.w3.org/2000/svg" p-id="3106" xmlns:xlink="http://www.w3.org/1999/xlink" width="240" height="240"><defs><style type="text/css">@font-face { font-family: feedback-iconfont; src: url("//at.alicdn.com/t/font_1031158_u69w8yhxdu.woff2?t=1630033759944") format("woff2"), url("//at.alicdn.com/t/font_1031158_u69w8yhxdu.woff?t=1630033759944") format("woff"), url("//at.alicdn.com/t/font_1031158_u69w8yhxdu.ttf?t=1630033759944") format("truetype"); }
</style></defs><path d="M204.8 390.4A19.2 19.2 0 0 0 185.6 409.6v409.6c0 10.5984 8.6016 19.2 19.2 19.2h614.4a19.2 19.2 0 0 0 19.2-19.2V409.6A19.2 19.2 0 0 0 819.2 390.4H204.8z m96-64V204.8c0-45.9264 37.2736-83.2 83.2-83.2h256c45.9264 0 83.2 37.2736 83.2 83.2v121.6H819.2c45.9264 0 83.2 37.2736 83.2 83.2v409.6c0 45.9264-37.2736 83.2-83.2 83.2H204.8A83.2 83.2 0 0 1 121.6 819.2V409.6c0-45.9264 37.2736-83.2 83.2-83.2h96z m64 0h294.4V204.8a19.2 19.2 0 0 0-19.2-19.2h-256A19.2 19.2 0 0 0 364.8 204.8v121.6z" p-id="3107"></path><path d="M358.4 646.4a32 32 0 1 1 0-64h307.2a32 32 0 1 1 0 64H358.4z" p-id="3108"></path></svg>