<?xml version="1.0" standalone="no"?><!DOCTYPE svg PUBLIC "-//W3C//DTD SVG 1.1//EN" "http://www.w3.org/Graphics/SVG/1.1/DTD/svg11.dtd"><svg t="1654165891729" class="icon" viewBox="0 0 1024 1024" version="1.1" xmlns="http://www.w3.org/2000/svg" p-id="3813" xmlns:xlink="http://www.w3.org/1999/xlink" width="240" height="240"><defs><style type="text/css">@font-face { font-family: feedback-iconfont; src: url("//at.alicdn.com/t/font_1031158_u69w8yhxdu.woff2?t=1630033759944") format("woff2"), url("//at.alicdn.com/t/font_1031158_u69w8yhxdu.woff?t=1630033759944") format("woff"), url("//at.alicdn.com/t/font_1031158_u69w8yhxdu.ttf?t=1630033759944") format("truetype"); }
</style></defs><path d="M278.4 1024c-18.628571 0-36.342857-6.4-50.514286-18.057143-3.542857 0.457143-7.085714 0.685714-10.628571 0.685714-21.257143 0-41.142857-8.228571-56.114286-23.314285-2.742857-2.742857-5.371429-5.714286-7.657143-8.8-15.542857-2.971429-29.942857-10.4-41.371428-21.942857-6.971429-6.971429-12.571429-15.2-16.571429-24.114286-8.914286-3.885714-17.142857-9.485714-24.228571-16.571429-11.428571-11.428571-18.971429-25.942857-21.828572-41.371428-3.085714-2.285714-6.057143-4.914286-8.914285-7.657143-18.285714-18.285714-25.942857-43.085714-22.628572-66.857143C6.4 781.828571 0 764.228571 0 745.6c0-16.914286 5.257143-33.142857 15.085714-46.514286-0.571429-5.485714-0.571429-11.085714 0-16.685714 1.942857-17.942857 10.057143-34.971429 22.857143-47.771429 0.457143-0.457143 0.914286-0.914286 1.485714-1.371428 0.457143-19.885714 8.457143-39.314286 23.314286-54.171429 5.6-5.6 12-10.4 18.971429-14.057143 3.885714-10.857143 10.171429-20.8 18.628571-29.257142 6.057143-6.057143 12.8-10.971429 20.114286-14.628572 3.885714-10.285714 10.057143-19.885714 18.057143-27.885714 6.4-6.4 13.6-11.542857 21.485714-15.314286 4-9.828571 9.828571-18.857143 17.485714-26.514286 7.085714-7.085714 15.2-12.571429 24-16.571428 3.885714-8.8 9.485714-16.914286 16.342857-23.885714 7.085714-7.085714 15.2-12.571429 24-16.571429 3.885714-8.8 9.485714-16.914286 16.342858-23.885714 8.8-8.8 19.2-15.2 30.628571-19.085715 3.542857-6.4 8-12.457143 13.371429-17.714285 8.114286-8.114286 17.6-14.171429 27.885714-18.057143 3.771429-7.314286 8.685714-14.171429 14.628571-20.114286 9.6-9.6 21.142857-16.342857 33.714286-20.114286 1.714286-2.171429 3.657143-4.342857 5.6-6.285714 12.914286-12.914286 29.485714-20.8 47.314286-22.742857 1.028571-1.142857 2.057143-2.285714 3.2-3.428571 13.6-13.6 31.2-21.6 50.171428-23.085715 1.371429-1.6 2.857143-3.2 4.342857-4.685714C504 200.228571 524 192 545.142857 192c2.4 0 4.8 0.114286 7.2 0.342857 12.914286-8.571429 28-13.142857 43.771429-13.142857 4.8 0 9.485714 0.457143 14.057143 1.257143 12.114286-7.085714 25.942857-10.971429 40.228571-10.971429 15.885714 0 31.085714 4.685714 44 13.257143 6.4-6.171429 14.514286-13.142857 24.228571-18.171428-3.2-30.4 3.428571-64 19.771429-98.857143 8.571429-18.4 17.142857-32.228571 26.171429-42.4C782.057143 4.114286 799.885714 0 811.657143 0c16 0 30.971429 7.2 42.171428 20.228571 12.8 14.971429 21.257143 38.4 25.028572 69.6 2.057143 17.257143 2.628571 35.885714 1.485714 53.714286 6.057143-0.342857 12.228571-0.571429 18.628572-0.571428 24.342857 0 48.114286 2.971429 66.857142 8.228571 22.285714 6.4 50.285714 20.114286 56.914286 49.6 2.514286 11.314286 3.428571 33.6-19.085714 55.428571-10.4 10.057143-25.257143 19.657143-45.371429 29.028572-29.028571 13.6-57.142857 20.457143-83.771428 20.457143-5.142857 0-10.171429-0.228571-15.085715-0.8-5.028571 9.6-11.885714 17.714286-18.171428 24.228571 16.8 25.257143 17.6 58.171429 2.4 84.114286 3.657143 19.885714-0.457143 40.685714-11.885714 57.942857 0.571429 5.942857 0.457143 12-0.342858 17.942857-2.4 17.371429-10.171429 33.028571-22.514285 45.371429-1.485714 1.485714-3.085714 2.971429-4.685715 4.342857-1.485714 18.514286-9.257143 36.457143-22.971428 50.057143-1.142857 1.142857-2.285714 2.171429-3.428572 3.2-1.942857 17.6-9.828571 34.4-22.742857 47.314285-2.057143 2.057143-4.114286 3.885714-6.285714 5.714286-3.657143 12.571429-10.514286 24.228571-20 33.714286-6.057143 6.057143-12.8 10.971429-20.114286 14.628571-3.885714 10.285714-10.057143 19.885714-18.057143 27.885715-5.371429 5.371429-11.314286 9.828571-17.828571 13.371428-3.885714 11.428571-10.285714 21.942857-18.971429 30.628572-7.085714 7.085714-15.2 12.571429-24 16.571428-3.885714 8.8-9.485714 16.914286-16.342857 23.885714-7.085714 7.085714-15.2 12.571429-24 16.571429-3.885714 8.8-9.485714 16.914286-16.342857 23.885714-7.657143 7.657143-16.685714 13.6-26.514286 17.6-3.771429 7.771429-8.914286 15.085714-15.314285 21.371429-8.114286 8.114286-17.6 14.171429-27.885715 18.057143-3.771429 7.314286-8.685714 14.171429-14.628571 20.114285-8.457143 8.457143-18.4 14.742857-29.257143 18.628572-3.657143 6.857143-8.342857 13.257143-14.057143 18.971428-14.514286 14.514286-33.6 22.742857-54.057143 23.2-0.457143 0.571429-1.028571 1.028571-1.485714 1.6-14.971429 14.971429-34.971429 23.2-56.114286 23.2-2.742857 0-5.485714-0.114286-8.228571-0.457142-14.171429 10.171429-30.285714 15.428571-47.2 15.428571z" fill="#25467A" p-id="3814"></path><path d="M799.542857 220c20.228571 44.228571 73.6 60.228571 141.371429 28.457143 103.428571-48.342857-6.171429-73.257143-77.371429-62.285714-29.714286 4.685714-69.371429 22.057143-64 33.828571z" fill="#F4511E" p-id="3815"></path><path d="M804 224.457143c-44.228571-20.228571-60.228571-73.6-28.457143-141.371429 48.342857-103.428571 73.257143 6.171429 62.285714 77.371429-4.685714 29.714286-22.057143 69.371429-33.828571 64z" fill="#F4511E" p-id="3816"></path><path d="M758.857143 186.742857c37.485714-37.485714 36-0.8 57.6 20.914286s58.285714 20.114286 20.914286 57.6c-37.485714 37.485714-85.485714 50.285714-107.085715 28.571428s-8.914286-69.6 28.571429-107.085714z" fill="#FF7043" p-id="3817"></path><path d="M721.142857 213.828571c37.485714-37.485714 38.285714 1.485714 62.857143 26.057143s63.542857 25.371429 26.057143 62.857143-87.771429 48-112.342857 23.314286c-24.457143-24.457143-14.057143-74.742857 23.428571-112.228572z" fill="#F4511E" p-id="3818"></path><path d="M246.628571 439.771429c-8 8-11.771429 18.628571-11.314285 29.142857-10.514286-0.457143-21.142857 3.314286-29.142857 11.314285a38.491429 38.491429 0 0 0-11.2 30.514286c-10.057143-0.114286-20.114286 3.657143-27.771429 11.314286-8.571429 8.571429-12.228571 20.114286-11.2 31.2-9.828571 0.114286-19.657143 3.885714-27.085714 11.314286-8.685714 8.685714-12.457143 20.571429-11.085715 32-9.6 0.228571-19.2 4-26.514285 11.314285-12.228571 12.228571-14.628571 30.742857-6.971429 45.371429-6.514286 1.6-12.8 5.028571-17.828571 10.171428-13.028571 13.028571-14.857143 33.028571-5.371429 48-3.314286 1.714286-6.4 4-9.142857 6.857143-15.085714 15.085714-15.085714 39.657143 0 54.742857 4.342857 4.342857 9.371429 7.428571 14.742857 9.257143-12.457143 15.2-11.542857 37.714286 2.628572 51.885715 5.942857 5.942857 13.257143 9.485714 20.914285 10.742857-3.771429 13.142857-0.571429 27.885714 9.828572 38.171428 8.114286 8.114286 18.857143 11.885714 29.485714 11.314286-0.571429 10.628571 3.2 21.371429 11.314286 29.485714 10.285714 10.285714 25.028571 13.6 38.171428 9.828572 1.257143 7.657143 4.914286 14.971429 10.742857 20.914285 14.171429 14.171429 36.685714 15.085714 51.885715 2.628572 1.828571 5.371429 4.914286 10.514286 9.257143 14.742857 15.085714 15.085714 39.657143 15.085714 54.742857 0 2.742857-2.742857 5.028571-5.828571 6.857143-9.142857 14.971429 9.371429 34.971429 7.657143 48-5.371429 5.142857-5.142857 8.457143-11.314286 10.171428-17.828571 14.628571 7.657143 33.142857 5.371429 45.371429-6.971429 7.314286-7.314286 11.085714-16.914286 11.314285-26.514285 11.428571 1.371429 23.2-2.285714 32-11.085715 7.542857-7.542857 11.314286-17.257143 11.314286-27.085714 11.2 1.142857 22.742857-2.628571 31.2-11.2 7.657143-7.657143 11.428571-17.714286 11.314286-27.771429 10.971429 0.914286 22.171429-2.857143 30.514286-11.2 8-8 11.771429-18.628571 11.314285-29.142857 10.514286 0.457143 21.142857-3.314286 29.142857-11.314285s11.771429-18.628571 11.314286-29.142858c10.514286 0.457143 21.142857-3.314286 29.142857-11.314285 8.914286-8.914286 12.571429-21.142857 10.971429-32.685715 9.371429-0.342857 18.628571-4.114286 25.828571-11.314285 8.571429-8.571429 12.228571-20.114286 11.2-31.2 9.828571-0.114286 19.657143-3.885714 27.085715-11.314286 8.228571-8.228571 12-19.2 11.2-30.057143 5.485714-1.828571 10.742857-4.914286 15.085714-9.371428 10.971429-10.971429 13.942857-26.857143 9.028571-40.571429 6.285714-1.714286 12.228571-5.028571 17.142857-9.942857 11.885714-11.885714 14.4-29.485714 7.657143-43.771429 7.314286-1.371429 14.285714-4.914286 20-10.628571 12.457143-12.457143 14.628571-31.2 6.628572-45.942857 2.171429-1.485714 4.228571-3.085714 6.171428-5.028572 13.6-13.6 14.971429-34.742857 4.228572-49.828571 1.942857-1.371429 3.771429-2.857143 5.485714-4.571429 15.085714-15.085714 15.085714-39.657143 0-54.742857-3.542857-3.542857-7.657143-6.285714-12-8.114286 0 0 0.114286 0 0.114286-0.114285 15.085714-15.085714 15.085714-39.657143 0-54.742857-10.971429-10.971429-26.742857-13.942857-40.457143-9.142858 4.914286-13.6 1.828571-29.485714-9.142857-40.457142-15.085714-15.085714-39.657143-15.085714-54.742857 0 0 0 0 0.114286-0.114286 0.114285-1.828571-4.342857-4.571429-8.457143-8.114286-12-15.085714-15.085714-39.657143-15.085714-54.742857 0-1.714286 1.714286-3.2 3.542857-4.571429 5.485715-15.085714-10.742857-36.228571-9.371429-49.828571 4.228571-1.942857 1.942857-3.542857 4-5.028571 6.171429-14.742857-8-33.485714-5.828571-45.942858 6.628571-5.714286 5.714286-9.257143 12.685714-10.628571 20-14.4-6.742857-32-4.114286-43.771429 7.657143-4.914286 4.914286-8.228571 10.857143-9.942857 17.142857-13.714286-4.914286-29.6-1.942857-40.571428 9.028571-4.342857 4.342857-7.542857 9.6-9.371429 15.085715-10.742857-0.685714-21.828571 2.971429-30.057143 11.2-7.542857 7.542857-11.314286 17.257143-11.314285 27.085714-11.2-1.142857-22.742857 2.628571-31.2 11.2-7.2 7.2-10.971429 16.457143-11.314286 25.828571-11.657143-1.6-23.771429 2.057143-32.685714 10.971429-8 8-11.771429 18.628571-11.314286 29.142857-10.4-0.342857-21.028571 3.428571-29.028572 11.428572z" fill="#FCE68D" p-id="3819"></path><path d="M588.8 294.514286c-4.342857-2.057143-9.257143-3.2-14.4-3.2-18.971429 0-34.4 15.428571-34.4 34.4 0 4.457143 0.8 8.685714 2.4 12.685714-6.4-5.828571-10.4-14.285714-10.4-23.657143 0-17.714286 14.285714-32 32-32 10.057143 0 18.971429 4.571429 24.8 11.771429zM623.657143 416.342857c-4.342857-2.057143-9.257143-3.2-14.4-3.2-18.971429 0-34.4 15.428571-34.4 34.4 0 4.457143 0.8 8.685714 2.4 12.685714-6.4-5.828571-10.4-14.285714-10.4-23.657142 0-17.714286 14.285714-32 32-32 9.942857 0 18.857143 4.571429 24.8 11.771428zM440.914286 804.914286c-4.342857-2.057143-9.257143-3.2-14.4-3.2-18.971429 0-34.4 15.428571-34.4 34.4 0 4.457143 0.8 8.685714 2.4 12.685714-6.4-5.828571-10.4-14.285714-10.4-23.657143 0-17.714286 14.285714-32 32-32 10.057143 0 18.971429 4.571429 24.8 11.771429zM773.714286 404c-4.342857-2.057143-9.257143-3.2-14.4-3.2-18.971429 0-34.4 15.428571-34.4 34.4 0 4.457143 0.8 8.685714 2.4 12.685714-6.4-5.828571-10.4-14.285714-10.4-23.657143 0-17.714286 14.285714-32 32-32 9.942857 0 18.857143 4.571429 24.8 11.771429zM490.742857 332.342857c-4.342857-2.057143-9.257143-3.2-14.4-3.2-18.971429 0-34.4 15.428571-34.4 34.4 0 4.457143 0.8 8.685714 2.4 12.685714-6.4-5.828571-10.4-14.285714-10.4-23.657142 0-17.714286 14.285714-32 32-32 9.942857 0 18.857143 4.571429 24.8 11.771428zM250.857143 879.314286c-3.542857-1.6-7.428571-2.514286-11.542857-2.514286-15.2 0-27.428571 12.342857-27.428572 27.428571 0 3.542857 0.685714 6.971429 1.942857 10.057143-5.142857-4.685714-8.342857-11.428571-8.342857-18.857143 0-14.171429 11.428571-25.6 25.6-25.6 7.885714 0 15.085714 3.657143 19.771429 9.485715zM157.6 756.114286c-3.542857-1.6-7.428571-2.514286-11.542857-2.514286-15.2 0-27.428571 12.342857-27.428572 27.428571 0 3.542857 0.685714 6.971429 1.942858 10.057143-5.142857-4.685714-8.342857-11.428571-8.342858-18.857143 0-14.171429 11.428571-25.6 25.6-25.6 7.885714 0.114286 14.971429 3.771429 19.771429 9.485715zM397.257143 886.285714c-3.542857-1.6-7.428571-2.514286-11.542857-2.514285-15.2 0-27.428571 12.342857-27.428572 27.428571 0 3.542857 0.685714 6.971429 1.942857 10.057143-5.142857-4.685714-8.342857-11.428571-8.342857-18.857143 0-14.171429 11.428571-25.6 25.6-25.6 7.885714 0.114286 14.971429 3.771429 19.771429 9.485714zM699.2 311.771429c-4.342857-2.057143-9.257143-3.2-14.4-3.2-18.971429 0-34.4 15.428571-34.4 34.4 0 4.457143 0.8 8.685714 2.4 12.685714-6.4-5.828571-10.4-14.285714-10.4-23.657143 0-17.714286 14.285714-32 32-32 9.942857 0 18.857143 4.571429 24.8 11.771429z" fill="#FAD53E" p-id="3820"></path><path d="M384.228571 721.714286c-35.314286 0-64-28.685714-64-64 0-7.085714 5.714286-12.8 12.8-12.8s12.8 5.714286 12.8 12.8c0 21.257143 17.257143 38.4 38.4 38.4s38.4-17.142857 38.4-38.4c0-7.085714 5.714286-12.8 12.8-12.8s12.8 5.714286 12.8 12.8c0 35.428571-28.685714 64-64 64z" fill="#25467A" p-id="3821"></path><path d="M256.228571 555.314286m-38.4 0a38.4 38.4 0 1 0 76.8 0 38.4 38.4 0 1 0-76.8 0Z" fill="#25467A" p-id="3822"></path><path d="M512.228571 555.314286m-38.4 0a38.4 38.4 0 1 0 76.8 0 38.4 38.4 0 1 0-76.8 0Z" fill="#25467A" p-id="3823"></path><path d="M205.028571 619.314286h-51.2c-14.171429 0-25.6 11.428571-25.6 25.6s11.428571 25.6 25.6 25.6h51.2c14.171429 0 25.6-11.428571 25.6-25.6 0-14.057143-11.428571-25.485714-25.6-25.6zM614.628571 619.314286H563.428571c-14.171429 0-25.6 11.428571-25.6 25.6s11.428571 25.6 25.6 25.6h51.2c14.171429 0 25.6-11.428571 25.6-25.6 0-14.057143-11.428571-25.485714-25.6-25.6z" fill="#FFAB91" p-id="3824"></path></svg>